<?xml version="1.0" encoding="UTF-8"?>
<svg width="64" height="64" viewBox="0 0 64 64" xmlns="http://www.w3.org/2000/svg">
  <defs>
    <!-- CXI Brand Colors -->
    <linearGradient id="cxiBlue" x1="0%" y1="0%" x2="100%" y2="100%">
      <stop offset="0%" style="stop-color:#1e3a8a;stop-opacity:1" />
      <stop offset="100%" style="stop-color:#1e40af;stop-opacity:1" />
    </linearGradient>
    <linearGradient id="cxiOrange" x1="0%" y1="0%" x2="100%" y2="100%">
      <stop offset="0%" style="stop-color:#f59e0b;stop-opacity:1" />
      <stop offset="100%" style="stop-color:#d97706;stop-opacity:1" />
    </linearGradient>
    <linearGradient id="docGradient" x1="0%" y1="0%" x2="100%" y2="100%">
      <stop offset="0%" style="stop-color:#f8fafc;stop-opacity:1" />
      <stop offset="100%" style="stop-color:#e2e8f0;stop-opacity:1" />
    </linearGradient>
    
    <!-- Drop shadow filter -->
    <filter id="dropShadow" x="-50%" y="-50%" width="200%" height="200%">
      <feDropShadow dx="2" dy="2" stdDeviation="3" flood-color="#000" flood-opacity="0.3"/>
    </filter>
  </defs>
  
  <!-- Main document background with gradient -->
  <g class="document-group" filter="url(#dropShadow)">
    <path d="M12 8 L12 56 L52 56 L52 20 L40 8 Z" fill="url(#docGradient)" stroke="#64748b" stroke-width="1"/>
    <!-- Document corner fold -->
    <path d="M40 8 L40 20 L52 20 Z" fill="#cbd5e1" stroke="#64748b" stroke-width="1"/>
  </g>
  
  <!-- CXI Oval Logo - matching brand style -->
  <g class="cxi-badge">
    <ellipse cx="32" cy="18" rx="16" ry="8" fill="url(#cxiBlue)" stroke="#1e40af" stroke-width="1"/>
    <!-- CXI text in white -->
    <text x="32" y="22" font-family="Arial, sans-serif" font-size="10" font-weight="bold" text-anchor="middle" fill="white">CXI</text>
  </g>
  
  <!-- Change request lines (document content) -->
  <g class="document-lines" stroke="#94a3b8" stroke-width="1" opacity="0.8">
    <line x1="16" y1="30" x2="48" y2="30"/>
    <line x1="16" y1="34" x2="45" y2="34"/>
    <line x1="16" y1="38" x2="47" y2="38"/>
    <line x1="16" y1="42" x2="43" y2="42"/>
    <line x1="16" y1="46" x2="46" y2="46"/>
  </g>
  
  <!-- Change Management Icon -->
  <g class="change-icon">
    <circle cx="24" cy="48" r="6" fill="url(#cxiOrange)" stroke="#d97706" stroke-width="1"/>
    <path d="M21 48 L24 45 L27 48 L24 51 Z" fill="white"/>
  </g>
  
  <!-- Currency Exchange Symbol -->
  <g class="exchange-symbol" fill="url(#cxiBlue)" stroke="#1e40af" stroke-width="1">
    <!-- Dollar sign -->
    <text x="40" y="48" font-family="Arial, sans-serif" font-size="12" font-weight="bold" text-anchor="middle" fill="url(#cxiBlue)">$</text>
    <!-- Exchange arrows -->
    <path d="M32 44 L36 44 L35 42 L38 45 L35 48 L36 46 L32 46 Z" fill="url(#cxiOrange)"/>
  </g>
  
  <!-- Brand accent line -->
  <line x1="12" y1="26" x2="52" y2="26" stroke="url(#cxiOrange)" stroke-width="2" opacity="0.8"/>
</svg> 