<svg version="1.1" id="Layer_1" xmlns="http://www.w3.org/2000/svg" xmlns:xlink="http://www.w3.org/1999/xlink" x="0px" y="0px"
	 width="100%" viewBox="0 0 496 496" enable-background="new 0 0 496 496" xml:space="preserve">
<path fill="#000000" opacity="1.000000" stroke="none" 
	d="
M324.000000,497.000000 
	C216.000031,497.000000 108.500053,497.000000 1.000058,497.000000 
	C1.000038,331.666718 1.000038,166.333466 1.000019,1.000146 
	C166.333237,1.000098 331.666473,1.000098 496.999756,1.000049 
	C496.999847,166.333191 496.999847,331.666382 496.999939,496.999786 
	C439.500000,497.000000 382.000000,497.000000 324.000000,497.000000 
M177.923676,338.665558 
	C178.251678,338.858856 178.579697,339.052155 178.923859,339.063812 
	C178.923859,339.063812 178.741516,339.065002 178.849335,339.797241 
	C178.868851,340.530457 178.888382,341.263702 178.978043,341.981812 
	C178.978043,341.981812 178.950058,341.915741 178.431168,342.281464 
	C178.267792,342.885956 178.104416,343.490417 177.808548,344.210297 
	C177.808548,344.210297 177.888748,344.366608 177.306152,344.819733 
	C177.083939,345.512787 176.861710,346.205872 176.796066,346.877625 
	C176.796066,346.877625 176.734634,346.732025 176.193008,347.160522 
	C176.090302,349.487610 171.954987,351.651642 175.935837,354.061707 
	C175.935837,354.061707 175.851562,354.051544 176.036118,354.563019 
	C176.361496,354.692963 176.686874,354.822876 177.006897,355.005005 
	C177.006897,355.005005 177.048431,354.972961 177.375504,355.462708 
	C177.913971,355.671967 178.452438,355.881226 178.982773,356.020111 
	C178.982773,356.020111 178.918915,356.050751 179.215408,356.608459 
	C180.141434,357.081482 181.067459,357.554504 181.997650,357.993469 
	C181.997650,357.993469 181.968079,358.011139 182.303070,358.515045 
	C182.864609,358.717102 183.426147,358.919128 183.968719,359.037811 
	C183.968719,359.037811 183.887619,359.064880 184.182938,359.622772 
	C184.768814,359.827698 185.354706,360.032593 185.917938,360.108948 
	C185.917938,360.108948 185.795593,360.154480 186.113754,360.686951 
	C186.675674,360.933167 187.237610,361.179382 187.828873,361.241547 
	C187.828873,361.241547 187.643753,361.263031 187.912415,361.770020 
	C188.271683,361.877045 188.630966,361.984100 188.977707,362.020538 
	C188.977707,362.020538 188.911316,362.047729 189.240082,362.584991 
	C190.185898,363.026672 191.131714,363.468384 192.189651,364.139893 
	C192.189651,364.139893 192.435410,364.069275 192.857101,364.637482 
	C193.896927,365.132812 194.936737,365.628143 195.961639,366.046051 
	C195.961639,366.046051 195.886841,366.071014 196.298218,366.649353 
	C199.179825,368.732391 201.517090,368.495056 203.026123,365.028381 
	C203.026123,365.028381 203.056854,365.102570 203.604980,364.880951 
	C204.042450,364.241699 204.479919,363.602448 204.988892,362.978973 
	C204.988892,362.978973 204.955887,362.913635 205.493332,362.613312 
	C206.023682,361.757690 206.554016,360.902039 207.021515,360.013611 
	C207.021515,360.013611 207.023682,360.084473 207.531815,359.921631 
	C207.692963,359.615845 207.854111,359.310059 207.999390,358.999207 
	C207.999390,358.999207 208.008179,359.013336 208.665222,358.706909 
	C209.777634,358.475281 210.890045,358.243652 211.998352,357.994293 
	C211.998352,357.994293 211.981323,358.002136 212.465866,358.525574 
	C217.067627,359.855713 221.595505,361.728851 226.291321,362.367920 
	C231.292053,363.048462 233.350784,364.758820 233.330276,370.140808 
	C233.319305,373.019531 232.641632,378.029633 237.326019,378.660919 
	C241.448792,379.216522 245.762680,378.353760 250.552887,378.264130 
	C250.732635,378.193268 250.912369,378.122406 251.518250,378.073792 
	C251.518250,378.073792 251.944977,378.077393 252.880432,378.120422 
	C253.213699,378.120728 253.546967,378.122406 253.880234,378.121216 
	C265.425781,378.079742 265.321716,378.053070 268.244324,366.623383 
	C268.612274,365.184418 270.575134,363.621368 272.124969,363.116699 
	C276.691315,361.629791 281.554108,361.006134 286.045654,359.351654 
	C289.656128,358.021790 292.067383,358.667786 294.157837,361.659454 
	C294.919037,362.748779 295.820221,363.740417 296.578400,364.831635 
	C298.908295,368.185028 301.567261,368.708527 305.072571,366.381317 
	C310.059326,363.070557 315.193726,359.975464 320.336426,356.907806 
	C327.072266,352.889862 327.306854,352.839508 323.805542,345.708710 
	C321.681641,341.383118 322.290344,338.395111 326.121674,335.478271 
	C328.859100,333.394165 331.293854,330.808136 333.491241,328.139435 
	C339.200745,321.205261 339.279053,320.969025 347.542297,324.863373 
	C351.504425,326.730621 353.665588,325.576599 355.559723,321.979706 
	C358.660187,316.092133 361.655029,310.083405 365.437225,304.642090 
	C368.228943,300.625732 367.582520,298.109192 364.003876,295.561829 
	C362.920135,294.790344 361.877136,293.961823 360.799408,293.181671 
	C358.166595,291.275940 357.313660,288.900269 358.580933,285.776367 
	C359.201416,284.246704 359.516083,282.592987 360.076447,280.279388 
	C360.562347,270.949402 364.316986,265.126953 374.830048,265.786957 
	C375.753876,265.844971 377.689087,262.887970 377.756195,261.273254 
	C378.079285,253.498306 377.836639,245.701843 377.976715,237.916290 
	C378.035767,234.634140 376.871582,233.301041 373.469299,232.871094 
	C369.669250,232.390869 365.991974,230.938843 362.188934,229.063934 
	C361.504913,225.691315 360.820892,222.318710 360.068542,218.368958 
	C359.803619,217.866714 359.538696,217.364471 359.190704,216.060471 
	C358.448059,212.318100 356.304504,208.385620 361.088287,205.570419 
	C370.041962,200.301224 369.078857,200.925247 363.888062,190.976425 
	C363.137146,189.537231 362.019165,188.289551 360.932068,186.275040 
	C357.950348,182.223785 354.968628,178.172531 351.192535,174.046646 
	C347.101013,175.222122 343.009521,176.397583 339.250336,177.477585 
	C335.885498,173.837265 333.094879,169.661392 329.270996,166.934387 
	C322.391052,162.027939 320.759033,156.773193 325.704742,149.711853 
	C327.269104,147.478302 326.503448,145.834106 324.145538,144.476700 
	C317.381195,140.582672 310.679901,136.576263 304.018097,132.508728 
	C301.587616,131.024719 299.361053,131.147537 298.030457,133.550888 
	C293.717590,141.340927 287.775421,141.593933 280.720703,137.779465 
	C280.149902,137.470840 279.446960,137.223633 278.813629,137.241287 
	C270.687500,137.467667 266.859161,133.534668 266.965607,125.425789 
	C267.007629,122.222878 265.248444,120.661491 261.857941,120.848351 
	C258.210144,121.049408 254.544952,120.934814 250.108887,120.828789 
	C234.312332,119.720085 234.312332,119.720085 232.189621,135.253677 
	C232.189621,135.253677 232.143845,135.567688 231.372482,135.700668 
	C224.914413,137.457932 218.456329,139.215195 211.989975,140.990814 
	C211.989975,140.990814 211.971344,140.982422 211.198410,140.948669 
	C210.178757,140.884048 209.159119,140.819427 208.125671,140.854599 
	C208.125671,140.854599 208.214005,140.806152 208.033585,140.194809 
	C207.048370,139.104736 206.063171,138.014664 205.006439,136.996429 
	C205.006439,136.996429 205.081680,136.922546 204.901810,136.268829 
	C199.934433,130.211014 199.924469,130.195038 193.201859,134.388046 
	C191.413513,135.503464 189.706833,136.749817 188.001801,137.991730 
	C188.001801,137.991730 187.953613,137.945740 187.355713,138.032715 
	C187.081818,138.314316 186.807922,138.595917 186.201065,138.875565 
	C186.201065,138.875565 185.995636,139.137619 185.482941,139.143005 
	C185.267838,139.386215 185.052719,139.629440 184.923309,139.898956 
	C184.923309,139.898956 184.903183,139.811600 184.302811,139.843414 
	C183.850357,140.205139 183.397903,140.566864 182.999405,141.000000 
	C182.999405,141.000000 182.952347,140.924011 182.366608,140.939713 
	C181.925827,141.286346 181.485046,141.632980 180.982101,141.966888 
	C180.982101,141.966888 180.964569,142.027878 180.445679,142.077499 
	C180.236496,142.334045 180.027298,142.590591 179.916687,142.871689 
	C179.916687,142.871689 179.869614,142.781647 179.273148,142.815628 
	C178.836563,143.184357 178.399979,143.553085 177.989059,143.983429 
	C177.989059,143.983429 177.940720,143.937408 177.383301,143.960007 
	C176.975403,144.308319 176.567520,144.656647 176.004227,144.966187 
	C176.004227,144.966187 175.960587,145.120270 175.478088,145.167587 
	C175.142761,145.312714 174.968445,145.567917 174.958344,145.976425 
	C174.958344,145.976425 174.919189,145.957870 174.283981,146.201859 
	C174.464676,147.178085 174.645355,148.154327 174.809189,149.023438 
	C174.809189,149.023438 174.776627,149.126877 174.767670,149.736557 
	C175.094894,150.214615 175.422134,150.692673 175.987778,151.065369 
	C175.987778,151.065369 175.740143,151.145630 175.763596,151.838333 
	C176.125839,152.411026 176.488083,152.983719 176.749390,153.807785 
	C176.749390,153.807785 176.971725,153.962540 176.959702,154.576965 
	C177.283218,155.067810 177.606720,155.558670 177.984039,156.005203 
	C177.984039,156.005203 177.923187,156.051956 177.939270,156.728577 
	C177.270126,158.788773 176.600998,160.848969 175.407867,163.038132 
	C175.223679,163.329300 175.039490,163.620453 174.942368,163.922989 
	C174.942368,163.922989 174.902328,163.844849 174.351334,163.945480 
	C174.155212,164.245850 173.959106,164.546219 173.866287,164.856781 
	C173.866287,164.856781 173.842468,164.755753 173.293564,164.884552 
	C173.097092,165.188629 172.900635,165.492706 172.832428,165.792160 
	C172.832428,165.792160 172.784393,165.673141 172.245209,165.787384 
	C171.901184,166.192123 171.557159,166.596863 170.990814,167.002197 
	C170.990814,167.002197 170.955826,167.221725 170.556763,167.293472 
	C170.289352,167.438950 170.163071,167.663773 169.971680,167.975327 
	C169.971680,167.975327 169.972519,168.181656 169.568726,168.278305 
	C169.308121,168.437866 169.178543,168.670471 169.008057,168.981781 
	C169.008057,168.981781 169.012497,169.153763 168.412033,169.403625 
	C167.167633,170.726013 165.692032,171.899261 164.723938,173.399902 
	C162.223343,177.276077 159.243774,178.795563 154.481903,175.618347 
	C147.442871,172.407776 147.437042,172.404465 143.650925,179.055008 
	C143.332397,179.614517 143.162933,180.258865 142.412933,181.205505 
	C142.191605,181.770599 141.970261,182.335678 141.847504,182.893051 
	C141.847504,182.893051 141.808182,182.802338 141.275848,183.122665 
	C141.086685,183.703751 140.897522,184.284836 140.839996,184.885284 
	C140.839996,184.885284 140.825485,184.753021 140.324265,184.964615 
	C140.205002,185.296799 140.085739,185.628983 139.993591,185.991348 
	C139.993591,185.991348 139.954941,185.980179 139.405731,186.370392 
	C138.734055,187.510193 138.026840,188.630707 137.396210,189.792786 
	C130.932571,201.703857 129.780655,197.960419 140.116364,206.804291 
	C141.473328,207.965393 141.948685,210.156830 142.336853,212.383621 
	C141.000137,217.297775 139.663406,222.211914 138.052292,227.865326 
	C137.907104,230.871567 136.359406,232.167252 133.324905,232.273483 
	C130.871170,232.359360 128.286804,232.607544 126.047867,233.502731 
	C124.664818,234.055725 122.945526,235.916367 122.885056,237.257904 
	C122.618584,243.169327 122.900139,249.105469 122.778610,255.926056 
	C122.910332,267.507965 120.860718,265.083313 132.549652,267.034576 
	C133.038086,267.116119 133.701920,266.942413 134.004318,267.207123 
	C135.409897,268.437592 137.321518,269.546478 137.935486,271.131439 
	C139.290466,274.629272 139.973877,278.387238 140.899765,282.812805 
	C144.026871,288.214661 142.818924,292.299194 137.207428,295.084808 
	C136.629837,295.371552 136.175415,295.896698 135.634583,296.268677 
	C132.291321,298.567902 131.402618,301.140411 134.884720,303.970581 
	C134.884720,303.970581 134.704391,304.199066 134.762955,304.794922 
	C135.123459,305.239166 135.483963,305.683411 135.982468,306.048370 
	C135.982468,306.048370 135.830154,306.094421 135.876511,306.708588 
	C136.221283,307.190918 136.566055,307.673218 137.008560,308.852539 
	C138.898941,312.156067 140.744385,315.486267 142.688034,318.758148 
	C148.730835,328.930237 146.770035,327.094788 156.460770,323.075989 
	C158.751572,322.126007 160.879150,320.507233 163.273926,323.951172 
	C165.416168,326.317230 167.558411,328.683289 169.948914,331.594513 
	C170.290726,331.777679 170.632523,331.960815 170.968277,332.027130 
	C170.968277,332.027130 170.852020,332.040344 171.022003,332.578766 
	C171.341248,332.756104 171.660492,332.933411 171.980072,333.020355 
	C171.980072,333.020355 171.889786,333.024963 172.043411,333.558167 
	C172.359375,333.726562 172.675339,333.894989 172.996323,333.999786 
	C172.996323,333.999786 172.933670,334.012024 173.112366,334.506653 
	C173.410355,334.668884 173.708344,334.831116 174.000000,335.000000 
	C174.000000,335.000000 174.006226,334.993317 174.170609,335.459625 
	C174.374237,335.758789 174.656937,335.903748 175.025803,335.969604 
	C175.025803,335.969604 175.099899,335.955627 175.347290,336.485901 
	C175.849731,336.765808 176.352173,337.045715 176.876801,337.147491 
	C176.876801,337.147491 176.697647,337.158691 176.877884,337.724121 
	C177.219894,337.901337 177.561905,338.078552 177.909927,338.090942 
	C177.909927,338.090942 177.745865,338.107361 177.923676,338.665558 
z"/>
<path fill="#232B3A" opacity="1.000000" stroke="none" 
	d="
M359.969177,280.995422 
	C359.516083,282.592987 359.201416,284.246704 358.580933,285.776367 
	C357.313660,288.900269 358.166595,291.275940 360.799408,293.181671 
	C361.877136,293.961823 362.920135,294.790344 364.003876,295.561829 
	C367.582520,298.109192 368.228943,300.625732 365.437225,304.642090 
	C361.655029,310.083405 358.660187,316.092133 355.559723,321.979706 
	C353.665588,325.576599 351.504425,326.730621 347.542297,324.863373 
	C339.279053,320.969025 339.200745,321.205261 333.491241,328.139435 
	C331.293854,330.808136 328.859100,333.394165 326.121674,335.478271 
	C322.290344,338.395111 321.681641,341.383118 323.805542,345.708710 
	C327.306854,352.839508 327.072266,352.889862 320.336426,356.907806 
	C315.193726,359.975464 310.059326,363.070557 305.072571,366.381317 
	C301.567261,368.708527 298.908295,368.185028 296.578400,364.831635 
	C295.820221,363.740417 294.919037,362.748779 294.157837,361.659454 
	C292.067383,358.667786 289.656128,358.021790 286.045654,359.351654 
	C281.554108,361.006134 276.691315,361.629791 272.124969,363.116699 
	C270.575134,363.621368 268.612274,365.184418 268.244324,366.623383 
	C265.321716,378.053070 265.425781,378.079742 253.880234,378.121216 
	C253.546967,378.122406 253.213699,378.120728 252.430847,377.622009 
	C251.997528,368.417603 252.013794,359.711548 252.488739,351.003693 
	C273.874939,351.005188 292.498169,344.278839 309.451050,332.173859 
	C319.878540,324.728210 328.921356,315.891571 335.221161,304.879791 
	C342.020660,292.994568 348.563324,280.755035 349.086639,266.454010 
	C349.129578,265.280518 350.333282,264.149506 351.057861,263.394836 
	C350.866791,267.662659 350.855408,271.569214 350.301056,275.397125 
	C349.663422,279.799927 350.350952,280.674042 354.643829,280.338196 
	C356.391083,280.201477 358.192444,280.755615 359.969177,280.995422 
z"/>
<path fill="#FBA536" opacity="1.000000" stroke="none" 
	d="
M177.888733,344.366608 
	C177.888748,344.366608 177.808548,344.210297 178.120758,343.950348 
	C178.605316,343.098846 178.777695,342.507294 178.950058,341.915741 
	C178.950058,341.915741 178.978043,341.981812 179.195709,341.799957 
	C179.189407,340.767059 178.965454,339.916046 178.741516,339.065002 
	C178.741516,339.065002 178.923859,339.063812 178.808594,338.887268 
	C178.377518,338.509613 178.061691,338.308502 177.745865,338.107361 
	C177.745865,338.107361 177.909927,338.090942 177.794067,337.905640 
	C177.351364,337.533112 177.024506,337.345886 176.697647,337.158691 
	C176.697647,337.158691 176.876801,337.147491 176.769806,336.946350 
	C176.141830,336.482056 175.620865,336.218842 175.099899,335.955627 
	C175.099899,335.955627 175.025803,335.969604 174.900452,335.734650 
	C174.565125,335.260620 174.308838,335.091827 174.006226,334.993317 
	C174.006226,334.993317 174.000000,335.000000 173.877625,334.780853 
	C173.535248,334.298004 173.261398,334.114777 172.933670,334.012024 
	C172.933670,334.012024 172.996323,333.999786 172.869995,333.801636 
	C172.459030,333.410645 172.174408,333.217804 171.889786,333.024963 
	C171.889786,333.024963 171.980072,333.020355 171.855835,332.826721 
	C171.438416,332.435516 171.145218,332.237946 170.852020,332.040344 
	C170.852020,332.040344 170.968277,332.027130 170.827332,331.832214 
	C170.357788,331.441315 170.029221,331.245331 169.700653,331.049347 
	C167.558411,328.683289 165.416168,326.317230 163.142166,323.333557 
	C163.908875,322.317322 164.895203,321.444977 165.692352,321.592773 
	C174.588348,323.242584 183.471359,326.498474 192.325150,326.399384 
	C200.847504,326.303986 206.080582,332.834320 213.767654,333.770416 
	C217.284973,334.198730 220.559448,336.635742 223.939590,338.171570 
	C227.217484,339.660950 231.649887,340.078827 230.882996,346.108948 
	C232.740662,345.100525 233.817734,343.811829 235.063141,342.714050 
	C236.163269,341.744354 237.603867,340.148071 238.620285,340.333069 
	C240.153152,340.612091 241.943497,341.943970 242.659805,343.327728 
	C243.098068,344.174316 241.731781,345.955017 241.043579,347.640320 
	C242.520203,348.458588 244.486969,349.635590 246.539047,350.637756 
	C247.244293,350.982178 248.162674,350.890167 248.990082,351.466431 
	C249.000717,357.908905 249.005829,363.882446 249.008987,369.856018 
	C249.012772,377.031219 248.989990,376.668274 241.649170,377.114471 
	C236.265320,377.441742 234.998581,374.824463 234.995651,370.382538 
	C234.994781,369.057190 235.263779,367.579681 234.776093,366.443634 
	C234.108322,364.888123 233.077560,362.681213 231.782623,362.338226 
	C225.257172,360.609772 218.595306,359.396332 211.981323,358.002136 
	C211.981323,358.002136 211.998352,357.994293 211.938507,357.672333 
	C209.359222,355.043640 208.494797,356.588806 208.008179,359.013336 
	C208.008179,359.013336 207.999390,358.999207 207.784393,359.122192 
	C207.387482,359.524933 207.205582,359.804718 207.023682,360.084473 
	C207.023682,360.084473 207.021515,360.013611 206.712036,360.068848 
	C205.920319,361.053925 205.438095,361.983795 204.955887,362.913635 
	C204.955887,362.913635 204.988892,362.978973 204.638397,363.034363 
	C203.877548,363.760681 203.467209,364.431610 203.056854,365.102570 
	C203.056854,365.102570 203.026123,365.028381 202.663635,365.073303 
	C200.163040,365.435791 198.024948,365.753387 195.886841,366.071014 
	C195.886841,366.071014 195.961639,366.046051 195.812759,365.751343 
	C194.587723,364.994171 193.511566,364.531738 192.435410,364.069275 
	C192.435410,364.069275 192.189651,364.139893 192.032684,363.692902 
	C190.887589,362.846527 189.899445,362.447144 188.911316,362.047729 
	C188.911316,362.047729 188.977707,362.020538 188.826202,361.824707 
	C188.331055,361.506927 187.987396,361.384979 187.643753,361.263031 
	C187.643753,361.263031 187.828873,361.241547 187.708740,361.013824 
	C186.990952,360.575562 186.393280,360.365021 185.795593,360.154480 
	C185.795593,360.154480 185.917938,360.108948 185.776016,359.891541 
	C185.051941,359.471039 184.469772,359.267975 183.887604,359.064880 
	C183.887619,359.064880 183.968719,359.037811 183.810944,358.822632 
	C183.091476,358.408661 182.529770,358.209900 181.968079,358.011169 
	C181.968079,358.011139 181.997650,357.993469 181.931793,357.666321 
	C180.883591,356.909698 179.901245,356.480225 178.918915,356.050751 
	C178.918915,356.050751 178.982773,356.020111 178.827087,355.804962 
	C178.130402,355.384216 177.589417,355.178589 177.048431,354.972961 
	C177.048431,354.972961 177.006897,355.005005 176.871155,354.766541 
	C176.440811,354.369232 176.146194,354.210388 175.851562,354.051544 
	C175.851562,354.051544 175.935837,354.061707 175.954285,353.684845 
	C176.226685,351.115997 176.480667,348.924011 176.734650,346.732025 
	C176.734634,346.732025 176.796066,346.877625 177.048584,346.695557 
	C177.496964,345.797852 177.692856,345.082245 177.888733,344.366608 
z"/>
<path fill="#2B394C" opacity="1.000000" stroke="none" 
	d="
M250.887344,120.957947 
	C254.544952,120.934814 258.210144,121.049408 261.857941,120.848351 
	C265.248444,120.661491 267.007629,122.222878 266.965607,125.425789 
	C266.859161,133.534668 270.687500,137.467667 278.813629,137.241287 
	C279.446960,137.223633 280.149902,137.470840 280.720703,137.779465 
	C287.775421,141.593933 293.717590,141.340927 298.030457,133.550888 
	C299.361053,131.147537 301.587616,131.024719 304.018097,132.508728 
	C310.679901,136.576263 317.381195,140.582672 324.145538,144.476700 
	C326.503448,145.834106 327.269104,147.478302 325.704742,149.711853 
	C320.759033,156.773193 322.391052,162.027939 329.270996,166.934387 
	C333.094879,169.661392 335.885498,173.837265 339.250336,177.477585 
	C343.009521,176.397583 347.101013,175.222122 351.593933,174.479950 
	C352.306976,179.185028 350.630066,182.086517 346.194305,182.718628 
	C340.144012,183.580872 334.066071,184.249176 327.706543,184.844940 
	C324.276215,181.792236 321.139343,178.895203 317.845947,175.703766 
	C312.535675,171.314346 307.533600,167.008423 302.196289,163.168518 
	C291.321777,155.344910 278.657928,152.108017 265.708038,150.131119 
	C256.515808,148.727859 254.987320,150.707169 256.912659,159.616760 
	C257.016174,160.095703 256.969543,160.607117 256.591095,161.097427 
	C254.083618,161.059067 251.782806,161.311401 252.118988,157.859344 
	C251.972198,154.752197 251.551056,151.900650 251.043884,148.584106 
	C250.934341,139.065384 250.910843,130.011658 250.887344,120.957947 
z"/>
<path fill="#F94B4F" opacity="1.000000" stroke="none" 
	d="
M176.971725,153.962540 
	C176.971725,153.962540 176.749390,153.807785 176.811218,153.316956 
	C176.495392,152.265961 176.117767,151.705795 175.740143,151.145630 
	C175.740143,151.145630 175.987778,151.065369 175.912994,150.802490 
	C175.484344,150.068710 175.130493,149.597794 174.776627,149.126877 
	C174.776627,149.126877 174.809189,149.023438 174.879852,148.682388 
	C174.940079,147.546844 174.929642,146.752365 174.919189,145.957870 
	C174.919189,145.957870 174.958344,145.976425 175.169968,145.881943 
	C175.656647,145.636276 175.849655,145.413879 175.960587,145.120270 
	C175.960587,145.120270 176.004227,144.966187 176.357819,144.961700 
	C177.121185,144.617294 177.530960,144.277344 177.940720,143.937408 
	C177.940720,143.937408 177.989059,143.983429 178.280823,143.944458 
	C179.004929,143.530853 179.437271,143.156250 179.869614,142.781647 
	C179.869614,142.781647 179.916687,142.871689 180.110016,142.805206 
	C180.617950,142.589386 180.838348,142.352432 180.964569,142.027878 
	C180.964569,142.027878 180.982101,141.966888 181.303955,141.955566 
	C182.067978,141.604156 182.510162,141.264084 182.952347,140.924011 
	C182.952347,140.924011 182.999405,141.000000 183.279343,140.956863 
	C184.007248,140.546356 184.455215,140.178986 184.903183,139.811600 
	C184.903183,139.811600 184.923309,139.898956 185.115082,139.838409 
	C185.611847,139.645569 185.841446,139.432159 185.995636,139.137619 
	C185.995636,139.137619 186.201065,138.875565 186.658875,138.813568 
	C187.395660,138.482956 187.674637,138.214355 187.953613,137.945740 
	C187.953613,137.945740 188.001801,137.991730 188.405182,137.974884 
	C194.232925,137.612885 199.657303,137.267715 205.081680,136.922546 
	C205.081680,136.922546 205.006439,136.996429 205.017929,137.358047 
	C206.090942,138.748489 207.152481,139.777328 208.214005,140.806152 
	C208.214005,140.806152 208.125671,140.854599 208.214874,141.115448 
	C209.526489,141.244995 210.748917,141.113708 211.971344,140.982422 
	C211.971344,140.982422 211.989975,140.990814 212.429230,141.000641 
	C220.081192,141.985428 226.472610,140.051773 232.143845,135.567688 
	C232.143845,135.567688 232.189621,135.253677 232.629059,135.038193 
	C235.521164,129.090469 235.460342,129.144852 239.807022,134.006042 
	C241.715027,136.139877 244.053177,137.889389 245.958176,140.025513 
	C247.195587,141.413040 248.665451,143.100143 248.879395,144.798141 
	C249.512299,149.821640 249.573196,154.917206 249.407516,159.987366 
	C245.391373,159.689529 241.358505,160.306198 238.405212,158.802536 
	C235.975479,157.565430 234.577454,157.445038 232.220505,158.281723 
	C228.754456,159.512131 225.096344,160.698837 221.471191,160.870087 
	C215.660583,161.144547 209.736740,159.904907 203.995758,160.535080 
	C197.556625,161.241898 191.490631,159.817398 185.317886,158.973816 
	C182.767517,158.625290 180.383087,157.062485 177.923187,156.051971 
	C177.923187,156.051956 177.984039,156.005203 177.944641,155.724854 
	C177.594055,154.950531 177.282898,154.456528 176.971725,153.962540 
z"/>
<path fill="#FA9E3A" opacity="1.000000" stroke="none" 
	d="
M248.983688,350.997559 
	C248.162674,350.890167 247.244293,350.982178 246.539047,350.637756 
	C244.486969,349.635590 242.520203,348.458588 241.043579,347.640320 
	C241.731781,345.955017 243.098068,344.174316 242.659805,343.327728 
	C241.943497,341.943970 240.153152,340.612091 238.620285,340.333069 
	C237.603867,340.148071 236.163269,341.744354 235.063141,342.714050 
	C233.817734,343.811829 232.740662,345.100525 230.882996,346.108948 
	C231.649887,340.078827 227.217484,339.660950 223.939590,338.171570 
	C220.559448,336.635742 217.284973,334.198730 213.767654,333.770416 
	C206.080582,332.834320 200.847504,326.303986 192.325150,326.399384 
	C183.471359,326.498474 174.588348,323.242584 165.692352,321.592773 
	C164.895203,321.444977 163.908875,322.317322 162.927307,323.090271 
	C160.879150,320.507233 158.751572,322.126007 156.460770,323.075989 
	C146.770035,327.094788 148.730835,328.930237 142.688034,318.758148 
	C140.744385,315.486267 138.898941,312.156067 136.953613,308.189636 
	C136.542511,307.049286 136.186325,306.571838 135.830154,306.094421 
	C135.830154,306.094421 135.982468,306.048370 135.920685,305.773865 
	C135.474060,305.065918 135.089233,304.632477 134.704391,304.199066 
	C134.704391,304.199066 134.884720,303.970581 134.883911,303.678802 
	C135.115753,302.011383 135.348419,300.635773 135.717926,298.451050 
	C138.778397,300.208984 141.129700,301.559570 143.481003,302.910187 
	C145.587860,301.466156 147.685501,300.939636 149.765244,301.002747 
	C152.890121,301.097595 156.003815,301.593445 159.119812,301.940826 
	C163.283173,302.404968 167.452713,302.826904 171.603256,303.387909 
	C174.506714,303.780334 177.382797,304.375244 180.527557,305.032013 
	C181.536545,305.448120 182.289062,305.711914 183.019714,305.986694 
	C182.997833,305.997681 183.027603,305.958557 183.051147,306.261230 
	C183.521118,306.880066 183.967529,307.196228 184.452576,307.542664 
	C184.491211,307.572906 184.544434,307.655396 184.529327,307.905304 
	C184.785522,308.307343 185.056824,308.459473 185.341675,308.633972 
	C185.355209,308.656311 185.396820,308.687988 185.414154,308.945831 
	C185.711838,309.371338 185.992203,309.538971 186.180283,309.805847 
	C186.088013,309.905060 186.299530,309.735687 186.341766,309.990356 
	C186.662735,310.423187 186.941467,310.601349 187.109802,310.888519 
	C186.999390,310.997559 187.222610,310.782532 187.290405,311.031586 
	C187.645737,311.447632 187.933258,311.614594 188.110382,311.890808 
	C188.000000,312.000000 188.219849,311.780945 188.285339,312.032990 
	C188.641953,312.450470 188.933090,312.615906 189.113327,312.889465 
	C189.002441,312.997559 189.218491,312.775635 189.286469,313.029266 
	C189.651398,313.442841 189.948380,313.602783 190.125977,313.874451 
	C190.006592,313.986145 190.234726,313.751648 190.301544,314.007019 
	C190.673691,314.402771 190.979004,314.543121 191.142151,314.841736 
	C191.000000,315.000000 191.284195,314.682770 191.359741,314.970367 
	C191.942581,315.509796 192.449860,315.761627 192.978638,316.003784 
	C193.000137,315.994049 192.993530,316.040771 193.094910,316.267944 
	C193.406921,316.782623 193.690063,316.938110 194.023529,316.981018 
	C194.001312,317.000458 194.035065,316.952362 194.143890,317.239929 
	C194.921341,317.925812 195.589966,318.324097 196.128601,318.856934 
	C195.998596,318.991455 196.252930,318.716370 196.350800,319.000610 
	C196.974426,319.514374 197.500183,319.743866 198.012970,319.986694 
	C198.000000,320.000000 198.023865,319.971771 198.087341,320.294891 
	C198.868408,320.939545 199.586014,321.261078 200.284576,321.629456 
	C200.265518,321.676270 200.359360,321.638672 200.424179,321.937775 
	C201.019623,322.467712 201.550247,322.698547 202.051544,322.960449 
	C202.022217,322.991455 202.040833,322.908112 202.189392,323.152496 
	C202.686935,323.518738 203.035919,323.640594 203.551788,323.810577 
	C203.718643,323.858704 203.989273,324.076416 204.063019,324.390686 
	C205.706833,325.769470 207.276917,326.833984 209.193817,327.967834 
	C211.026093,328.708923 212.511551,329.380676 214.191833,330.372986 
	C216.066177,331.096466 217.745697,331.499359 219.591248,331.868683 
	C219.757294,331.835114 220.002045,332.069397 220.225403,332.294006 
	C220.848862,332.646515 221.248962,332.774445 221.709869,332.834961 
	C221.770676,332.767548 221.925537,332.862335 222.132660,333.128143 
	C222.978806,333.506897 223.617844,333.619873 224.182678,333.744507 
	C224.108490,333.756195 224.128876,333.607361 224.292023,333.948334 
	C231.968246,335.524902 239.481308,336.760498 246.997345,337.997437 
	C247.000320,337.998779 247.004898,338.003601 247.248184,338.303345 
	C247.988876,342.734589 248.486282,346.866089 248.983688,350.997559 
z"/>
<path fill="#253040" opacity="1.000000" stroke="none" 
	d="
M360.022827,280.637390 
	C358.192444,280.755615 356.391083,280.201477 354.643829,280.338196 
	C350.350952,280.674042 349.663422,279.799927 350.301056,275.397125 
	C350.855408,271.569214 350.866791,267.662659 351.058472,262.934326 
	C351.000000,258.385040 351.001221,254.692352 351.235291,250.730545 
	C351.170013,238.302017 349.050537,226.474731 345.346191,215.049225 
	C348.656342,218.562378 352.836853,221.590714 354.272400,225.601501 
	C355.983826,230.383102 358.744171,230.100830 362.261261,229.909760 
	C365.991974,230.938843 369.669250,232.390869 373.469299,232.871094 
	C376.871582,233.301041 378.035767,234.634140 377.976715,237.916290 
	C377.836639,245.701843 378.079285,253.498306 377.756195,261.273254 
	C377.689087,262.887970 375.753876,265.844971 374.830048,265.786957 
	C364.316986,265.126953 360.562347,270.949402 360.022827,280.637390 
z"/>
<path fill="#F98044" opacity="1.000000" stroke="none" 
	d="
M122.983154,255.032654 
	C122.900139,249.105469 122.618584,243.169327 122.885056,237.257904 
	C122.945526,235.916367 124.664818,234.055725 126.047867,233.502731 
	C128.286804,232.607544 130.871170,232.359360 133.324905,232.273483 
	C136.359406,232.167252 137.907104,230.871567 138.382584,227.787750 
	C139.831131,228.806000 140.768494,230.453369 142.102646,230.890930 
	C145.657669,232.056885 149.591309,232.215485 152.992661,233.668335 
	C158.108246,235.853439 162.008423,235.827255 164.439911,230.564346 
	C163.837845,235.741180 162.912994,240.479019 162.730881,245.245224 
	C162.492401,251.486252 162.840546,257.749695 162.699295,263.760406 
	C160.984131,259.743408 158.833817,258.064240 154.207306,258.483459 
	C150.738281,258.797729 146.328125,257.614960 143.599884,255.482803 
	C136.535080,249.961548 129.982162,249.599731 122.983154,255.032654 
z"/>
<path fill="#263344" opacity="1.000000" stroke="none" 
	d="
M362.225098,229.486847 
	C358.744171,230.100830 355.983826,230.383102 354.272400,225.601501 
	C352.836853,221.590714 348.656342,218.562378 345.199310,214.722870 
	C341.740814,208.646286 339.063354,202.770065 335.732056,197.291382 
	C331.834351,190.881226 325.674072,191.394135 321.674255,197.912659 
	C318.579468,194.182266 315.772034,190.633865 312.976257,186.669342 
	C313.540619,182.287781 313.437897,178.001846 318.002472,175.998169 
	C321.139343,178.895203 324.276215,181.792236 327.865326,185.143127 
	C331.531311,187.729263 334.526154,190.392181 338.024261,191.835068 
	C341.126831,193.114838 344.773254,193.291672 348.207123,193.498581 
	C352.562531,193.761002 356.945740,193.562027 361.071045,193.562027 
	C361.071045,191.128036 361.071045,189.040634 361.071045,186.953247 
	C362.019165,188.289551 363.137146,189.537231 363.888062,190.976425 
	C369.078857,200.925247 370.041962,200.301224 361.088287,205.570419 
	C356.304504,208.385620 358.448059,212.318100 358.983459,216.640671 
	C359.229767,217.795944 359.683319,218.371017 360.136902,218.946106 
	C360.820892,222.318710 361.504913,225.691315 362.225098,229.486847 
z"/>
<path fill="#FA8B40" opacity="1.000000" stroke="none" 
	d="
M122.880882,255.479355 
	C129.982162,249.599731 136.535080,249.961548 143.599884,255.482803 
	C146.328125,257.614960 150.738281,258.797729 154.207306,258.483459 
	C158.833817,258.064240 160.984131,259.743408 162.733887,264.122742 
	C163.091843,265.448364 163.178146,266.168488 163.234955,267.290497 
	C164.240631,272.090485 165.275772,276.488586 165.948624,280.880249 
	C164.232101,280.496185 161.841553,279.540710 161.681015,279.828674 
	C159.661423,283.450653 157.423096,281.219116 155.416946,280.153595 
	C147.483276,275.939758 147.506485,275.896057 140.931274,282.039093 
	C139.973877,278.387238 139.290466,274.629272 137.935486,271.131439 
	C137.321518,269.546478 135.409897,268.437592 134.004318,267.207123 
	C133.701920,266.942413 133.038086,267.116119 132.549652,267.034576 
	C120.860718,265.083313 122.910332,267.507965 122.880882,255.479355 
z"/>
<path fill="#F9544F" opacity="1.000000" stroke="none" 
	d="
M177.931229,156.390274 
	C180.383087,157.062485 182.767517,158.625290 185.317886,158.973816 
	C191.490631,159.817398 197.556625,161.241898 203.995758,160.535080 
	C209.736740,159.904907 215.660583,161.144547 221.471191,160.870087 
	C225.096344,160.698837 228.754456,159.512131 232.220505,158.281723 
	C234.577454,157.445038 235.975479,157.565430 238.405212,158.802536 
	C241.358505,160.306198 245.391373,159.689529 249.452560,160.182251 
	C249.947922,160.374344 249.996109,160.770523 249.566986,160.868805 
	C236.289017,161.974731 223.834137,164.594894 211.686707,170.020569 
	C210.217224,170.701096 209.126801,171.385925 208.025146,172.036530 
	C208.013916,172.002319 208.072693,172.043915 207.763580,172.067841 
	C206.983902,172.447662 206.513336,172.803589 206.049683,173.115936 
	C206.056580,173.072372 206.139801,173.101654 205.756897,173.080505 
	C203.991730,174.135406 202.609467,175.211456 201.189896,176.244598 
	C201.152603,176.201691 201.256500,176.155579 200.998459,176.226593 
	C200.507172,176.557709 200.273926,176.817780 200.026489,177.039642 
	C200.012314,177.001404 200.068314,177.060745 199.763306,177.078003 
	C198.984909,177.434906 198.511536,177.774567 198.042572,178.084900 
	C198.046982,178.055573 198.080124,178.105820 197.620422,178.076202 
	C195.014801,178.036499 192.731918,177.542145 190.747665,178.103485 
	C183.667694,180.106369 178.004959,176.792313 172.392258,173.505875 
	C170.920746,172.644257 170.120834,170.635635 169.012497,169.153763 
	C169.012497,169.153763 169.008057,168.981781 169.255188,168.878571 
	C169.704697,168.613617 169.861435,168.415726 169.972519,168.181656 
	C169.972519,168.181656 169.971680,167.975327 170.233368,167.880554 
	C170.695587,167.636139 170.849182,167.448105 170.955826,167.221725 
	C170.955826,167.221725 170.990814,167.002197 171.380615,166.952545 
	C172.108414,166.492966 172.446411,166.083054 172.784393,165.673141 
	C172.784393,165.673141 172.832428,165.792160 173.036285,165.720367 
	C173.440918,165.350967 173.641693,165.053360 173.842468,164.755753 
	C173.842468,164.755753 173.866287,164.856781 174.069336,164.768494 
	C174.482376,164.401764 174.692352,164.123306 174.902328,163.844849 
	C174.902328,163.844849 174.942368,163.922989 175.133362,163.815002 
	C175.526855,163.441055 175.729355,163.175110 175.931870,162.909164 
	C176.600998,160.848969 177.270126,158.788773 177.931229,156.390274 
z"/>
<path fill="#F8963F" opacity="1.000000" stroke="none" 
	d="
M140.915527,282.425964 
	C147.506485,275.896057 147.483276,275.939758 155.416946,280.153595 
	C157.423096,281.219116 159.661423,283.450653 161.681015,279.828674 
	C161.841553,279.540710 164.232101,280.496185 166.169373,281.127991 
	C169.259155,285.493317 171.765884,289.604492 174.249176,293.754913 
	C174.225723,293.794159 174.315292,293.775787 174.322571,294.023193 
	C174.457352,294.603577 174.692062,294.820862 175.049286,294.934784 
	C175.064636,294.947144 175.071701,294.985901 175.073212,295.285217 
	C175.464554,295.990845 175.854416,296.397186 176.127991,296.897278 
	C176.011719,296.991028 176.252762,296.814606 176.226395,297.126312 
	C176.614212,297.804138 177.028381,298.170227 177.454605,298.564575 
	C177.466660,298.592834 177.518127,298.626373 177.485123,298.934601 
	C177.990585,299.814270 178.529068,300.385742 179.033081,300.975494 
	C178.998642,300.993805 179.056656,300.941040 179.066101,301.248901 
	C179.490662,301.947906 179.905792,302.339050 180.207336,302.853088 
	C180.093765,302.975983 180.329346,302.728424 180.271271,303.085205 
	C180.232513,303.921234 180.251801,304.400482 180.271103,304.879730 
	C177.382797,304.375244 174.506714,303.780334 171.603256,303.387909 
	C167.452713,302.826904 163.283173,302.404968 159.119812,301.940826 
	C156.003815,301.593445 152.890121,301.097595 149.765244,301.002747 
	C147.685501,300.939636 145.587860,301.466156 143.481003,302.910187 
	C141.129700,301.559570 138.778397,300.208984 135.717926,298.451050 
	C135.348419,300.635773 135.115753,302.011383 134.800629,303.795471 
	C131.402618,301.140411 132.291321,298.567902 135.634583,296.268677 
	C136.175415,295.896698 136.629837,295.371552 137.207428,295.084808 
	C142.818924,292.299194 144.026871,288.214661 140.915527,282.425964 
z"/>
<path fill="#FB634C" opacity="1.000000" stroke="none" 
	d="
M142.924225,180.863800 
	C143.162933,180.258865 143.332397,179.614517 143.650925,179.055008 
	C147.437042,172.404465 147.442871,172.407776 154.736938,176.256287 
	C154.713593,178.344162 154.014664,179.875854 154.276047,181.220917 
	C154.533417,182.545380 155.491089,184.174164 156.622482,184.800323 
	C159.306183,186.285614 162.243057,187.341492 165.135086,188.416214 
	C170.448456,190.390747 175.803223,192.253860 181.116318,194.507507 
	C179.780136,196.585693 178.468369,198.319763 176.895828,200.217865 
	C176.455597,200.951843 176.276138,201.521835 176.104065,202.104218 
	C176.111435,202.116638 176.117279,202.146545 175.727539,202.159027 
	C171.070435,202.448196 166.722656,203.353333 162.558853,202.820602 
	C158.584274,202.312057 154.884338,199.941498 150.916077,199.037170 
	C143.675034,197.387024 140.264069,193.608582 139.954941,185.980179 
	C139.954941,185.980179 139.993591,185.991348 140.197479,185.835831 
	C140.542740,185.371216 140.684113,185.062119 140.825485,184.753021 
	C140.825485,184.753021 140.839996,184.885284 141.067017,184.735382 
	C141.465424,183.991104 141.636795,183.396729 141.808182,182.802338 
	C141.808182,182.802338 141.847504,182.893051 142.080872,182.747681 
	C142.517563,182.022812 142.720901,181.443314 142.924225,180.863800 
z"/>
<path fill="#F97548" opacity="1.000000" stroke="none" 
	d="
M164.447510,230.137970 
	C162.008423,235.827255 158.108246,235.853439 152.992661,233.668335 
	C149.591309,232.215485 145.657669,232.056885 142.102646,230.890930 
	C140.768494,230.453369 139.831131,228.806000 138.519775,227.418121 
	C139.663406,222.211914 141.000137,217.297775 142.872467,211.943405 
	C144.944016,210.901672 147.194031,209.328278 147.904510,209.850281 
	C154.399124,214.622025 161.779953,215.207397 169.320038,215.498581 
	C167.653610,220.633057 166.050568,225.385513 164.447510,230.137970 
z"/>
<path fill="#F95B4D" opacity="1.000000" stroke="none" 
	d="
M181.140732,194.163422 
	C175.803223,192.253860 170.448456,190.390747 165.135086,188.416214 
	C162.243057,187.341492 159.306183,186.285614 156.622482,184.800323 
	C155.491089,184.174164 154.533417,182.545380 154.276047,181.220917 
	C154.014664,179.875854 154.713593,178.344162 154.997696,176.492340 
	C159.243774,178.795563 162.223343,177.276077 164.723938,173.399902 
	C165.692032,171.899261 167.167633,170.726013 168.712265,169.278687 
	C170.120834,170.635635 170.920746,172.644257 172.392258,173.505875 
	C178.004959,176.792313 183.667694,180.106369 190.747665,178.103485 
	C192.731918,177.542145 195.014801,178.036499 197.495728,178.393768 
	C194.579910,181.505508 191.329056,184.270065 187.854889,187.152496 
	C187.434784,187.539139 187.237976,187.807877 187.026062,188.042831 
	C187.010941,188.009048 187.077286,188.041916 186.852997,188.162323 
	C186.437653,188.558365 186.246567,188.833984 186.045425,189.071930 
	C186.035355,189.034256 186.110779,189.054184 185.880096,189.172028 
	C185.454117,189.569214 185.258820,189.848557 185.061340,190.088776 
	C185.059158,190.049652 185.135513,190.067230 184.898773,190.184814 
	C184.478104,190.596039 184.294159,190.889648 184.101135,191.142456 
	C184.092041,191.101624 184.175446,191.108047 183.932312,191.200104 
	C183.473022,191.556000 183.256866,191.819839 183.026794,192.049393 
	C183.012863,192.015106 183.081802,192.042038 182.853851,192.163727 
	C182.432907,192.565887 182.239899,192.846344 182.043549,193.083893 
	C182.040222,193.040970 182.126251,193.044327 181.888702,193.169373 
	C181.457474,193.589615 181.263794,193.884811 181.080093,194.143494 
	C181.090073,194.106979 181.140732,194.163422 181.140732,194.163422 
z"/>
<path fill="#F86C4B" opacity="1.000000" stroke="none" 
	d="
M169.383392,215.116577 
	C161.779953,215.207397 154.399124,214.622025 147.904510,209.850281 
	C147.194031,209.328278 144.944016,210.901672 143.120209,211.687134 
	C141.948685,210.156830 141.473328,207.965393 140.116364,206.804291 
	C129.780655,197.960419 130.932571,201.703857 137.396210,189.792786 
	C138.026840,188.630707 138.734055,187.510193 139.680328,186.175293 
	C140.264069,193.608582 143.675034,197.387024 150.916077,199.037170 
	C154.884338,199.941498 158.584274,202.312057 162.558853,202.820602 
	C166.722656,203.353333 171.070435,202.448196 175.651733,202.495758 
	C173.771576,206.918869 171.577484,211.017731 169.383392,215.116577 
z"/>
<path fill="#263547" opacity="1.000000" stroke="none" 
	d="
M361.001556,186.614136 
	C361.071045,189.040634 361.071045,191.128036 361.071045,193.562027 
	C356.945740,193.562027 352.562531,193.761002 348.207123,193.498581 
	C344.773254,193.291672 341.126831,193.114838 338.024261,191.835068 
	C334.526154,190.392181 331.531311,187.729263 328.158783,185.298798 
	C334.066071,184.249176 340.144012,183.580872 346.194305,182.718628 
	C350.630066,182.086517 352.306976,179.185028 351.991089,174.517273 
	C354.968628,178.172531 357.950348,182.223785 361.001556,186.614136 
z"/>
<path fill="#EC4852" opacity="1.000000" stroke="none" 
	d="
M249.996109,160.770523 
	C249.996109,160.770523 249.947922,160.374344 249.902878,160.179459 
	C249.573196,154.917206 249.512299,149.821640 248.879395,144.798141 
	C248.665451,143.100143 247.195587,141.413040 245.958176,140.025513 
	C244.053177,137.889389 241.715027,136.139877 239.807022,134.006042 
	C235.460342,129.144852 235.521164,129.090469 232.774033,134.973724 
	C234.312332,119.720085 234.312332,119.720085 250.498108,120.893372 
	C250.910843,130.011658 250.934341,139.065384 250.956360,149.025772 
	C251.046341,152.647903 251.137787,155.363342 251.156342,158.402222 
	C250.720978,159.407257 250.358551,160.088898 249.996109,160.770523 
z"/>
<path fill="#F3AC52" opacity="1.000000" stroke="none" 
	d="
M248.990082,351.466431 
	C248.486282,346.866089 247.988876,342.734589 247.662659,338.311432 
	C248.555450,339.422791 249.883713,340.817505 249.903198,342.230225 
	C250.068115,354.190765 249.994324,366.154572 249.992172,378.117401 
	C245.762680,378.353760 241.448792,379.216522 237.326019,378.660919 
	C232.641632,378.029633 233.319305,373.019531 233.330276,370.140808 
	C233.350784,364.758820 231.292053,363.048462 226.291321,362.367920 
	C221.595505,361.728851 217.067627,359.855713 212.223602,358.263855 
	C218.595306,359.396332 225.257172,360.609772 231.782623,362.338226 
	C233.077560,362.681213 234.108322,364.888123 234.776093,366.443634 
	C235.263779,367.579681 234.994781,369.057190 234.995651,370.382538 
	C234.998581,374.824463 236.265320,377.441742 241.649170,377.114471 
	C248.989990,376.668274 249.012772,377.031219 249.008987,369.856018 
	C249.005829,363.882446 249.000717,357.908905 248.990082,351.466431 
z"/>
<path fill="#EC4852" opacity="1.000000" stroke="none" 
	d="
M204.991745,136.595688 
	C199.657303,137.267715 194.232925,137.612885 188.385605,137.947052 
	C189.706833,136.749817 191.413513,135.503464 193.201859,134.388046 
	C199.924469,130.195038 199.934433,130.211014 204.991745,136.595688 
z"/>
<path fill="#EC4852" opacity="1.000000" stroke="none" 
	d="
M231.758163,135.634186 
	C226.472610,140.051773 220.081192,141.985428 212.433380,140.991455 
	C218.456329,139.215195 224.914413,137.457932 231.758163,135.634186 
z"/>
<path fill="#B58853" opacity="1.000000" stroke="none" 
	d="
M250.272522,378.190765 
	C249.994324,366.154572 250.068115,354.190765 249.903198,342.230225 
	C249.883713,340.817505 248.555450,339.422791 247.419373,338.011658 
	C247.004898,338.003601 247.000320,337.998779 246.984406,337.791016 
	C246.968506,337.583282 246.956909,337.169708 247.329468,337.081787 
	C248.718903,337.039368 249.735809,337.084900 250.834320,337.584442 
	C250.974655,351.376160 251.033371,364.713867 251.092087,378.051575 
	C250.912369,378.122406 250.732635,378.193268 250.272522,378.190765 
z"/>
<path fill="#251E1D" opacity="1.000000" stroke="none" 
	d="
M251.305176,378.062683 
	C251.033371,364.713867 250.974655,351.376160 251.145599,337.549866 
	C251.583725,337.051208 251.792175,337.041199 252.000320,337.493896 
	C252.010040,342.306244 252.020050,346.655884 252.030060,351.005524 
	C252.013794,359.711548 251.997528,368.417603 251.963135,377.600525 
	C251.944977,378.077393 251.518250,378.073792 251.305176,378.062683 
z"/>
<path fill="#F3AC52" opacity="1.000000" stroke="none" 
	d="
M196.092529,366.360168 
	C198.024948,365.753387 200.163040,365.435791 202.701843,365.085632 
	C201.517090,368.495056 199.179825,368.732391 196.092529,366.360168 
z"/>
<path fill="#F3AC52" opacity="1.000000" stroke="none" 
	d="
M176.463837,346.946289 
	C176.480667,348.924011 176.226685,351.115997 175.941711,353.725403 
	C171.954987,351.651642 176.090302,349.487610 176.463837,346.946289 
z"/>
<path fill="#EC4852" opacity="1.000000" stroke="none" 
	d="
M208.123795,140.500488 
	C207.152481,139.777328 206.090942,138.748489 205.053680,137.322128 
	C206.063171,138.014664 207.048370,139.104736 208.123795,140.500488 
z"/>
<path fill="#F3AC52" opacity="1.000000" stroke="none" 
	d="
M208.336700,358.860107 
	C208.494797,356.588806 209.359222,355.043640 211.940552,357.681213 
	C210.890045,358.243652 209.777634,358.475281 208.336700,358.860107 
z"/>
<path fill="#EC4852" opacity="1.000000" stroke="none" 
	d="
M211.584869,140.965546 
	C210.748917,141.113708 209.526489,141.244995 208.221771,141.065552 
	C209.159119,140.819427 210.178757,140.884048 211.584869,140.965546 
z"/>
<path fill="#F3AC52" opacity="1.000000" stroke="none" 
	d="
M179.067169,356.329590 
	C179.901245,356.480225 180.883591,356.909698 181.929718,357.683350 
	C181.067459,357.554504 180.141434,357.081482 179.067169,356.329590 
z"/>
<path fill="#F3AC52" opacity="1.000000" stroke="none" 
	d="
M205.224609,362.763489 
	C205.438095,361.983795 205.920319,361.053925 206.743439,360.085266 
	C206.554016,360.902039 206.023682,361.757690 205.224609,362.763489 
z"/>
<path fill="#F3AC52" opacity="1.000000" stroke="none" 
	d="
M189.075699,362.316345 
	C189.899445,362.447144 190.887589,362.846527 191.976624,363.578003 
	C191.131714,363.468384 190.185898,363.026672 189.075699,362.316345 
z"/>
<path fill="#253040" opacity="1.000000" stroke="none" 
	d="
M360.102722,218.657532 
	C359.683319,218.371017 359.229767,217.795944 359.024963,217.041534 
	C359.538696,217.364471 359.803619,217.866714 360.102722,218.657532 
z"/>
<path fill="#F3AC52" opacity="1.000000" stroke="none" 
	d="
M192.646255,364.353394 
	C193.511566,364.531738 194.587723,364.994171 195.820221,365.790039 
	C194.936737,365.628143 193.896927,365.132812 192.646255,364.353394 
z"/>
<path fill="#F3AC52" opacity="1.000000" stroke="none" 
	d="
M203.330917,364.991760 
	C203.467209,364.431610 203.877548,363.760681 204.602646,363.026489 
	C204.479919,363.602448 204.042450,364.241699 203.330917,364.991760 
z"/>
<path fill="#F3AC52" opacity="1.000000" stroke="none" 
	d="
M178.795425,339.431122 
	C178.965454,339.916046 179.189407,340.767059 179.160629,341.807495 
	C178.888382,341.263702 178.868851,340.530457 178.795425,339.431122 
z"/>
<path fill="#EC4852" opacity="1.000000" stroke="none" 
	d="
M174.601593,146.079865 
	C174.929642,146.752365 174.940079,147.546844 174.888290,148.735962 
	C174.645355,148.154327 174.464676,147.178085 174.601593,146.079865 
z"/>
<path fill="#F8963F" opacity="1.000000" stroke="none" 
	d="
M135.853333,306.401489 
	C136.186325,306.571838 136.542511,307.049286 136.904755,307.841125 
	C136.566055,307.673218 136.221283,307.190918 135.853333,306.401489 
z"/>
<path fill="#F86C4B" opacity="1.000000" stroke="none" 
	d="
M141.542023,182.962494 
	C141.636795,183.396729 141.465424,183.991104 141.001205,184.725708 
	C140.897522,184.284836 141.086685,183.703751 141.542023,182.962494 
z"/>
<path fill="#F86C4B" opacity="1.000000" stroke="none" 
	d="
M142.668579,181.034653 
	C142.720901,181.443314 142.517563,182.022812 142.031586,182.751556 
	C141.970261,182.335678 142.191605,181.770599 142.668579,181.034653 
z"/>
<path fill="#F3AC52" opacity="1.000000" stroke="none" 
	d="
M175.223602,336.220764 
	C175.620865,336.218842 176.141830,336.482056 176.758713,337.035431 
	C176.352173,337.045715 175.849731,336.765808 175.223602,336.220764 
z"/>
<path fill="#F3AC52" opacity="1.000000" stroke="none" 
	d="
M178.690613,342.098602 
	C178.777695,342.507294 178.605316,343.098846 178.186996,343.892639 
	C178.104416,343.490417 178.267792,342.885956 178.690613,342.098602 
z"/>
<path fill="#F3AC52" opacity="1.000000" stroke="none" 
	d="
M177.597443,344.593170 
	C177.692856,345.082245 177.496964,345.797852 176.970276,346.706207 
	C176.861710,346.205872 177.083939,345.512787 177.597443,344.593170 
z"/>
<path fill="#F3AC52" opacity="1.000000" stroke="none" 
	d="
M177.211975,355.217834 
	C177.589417,355.178589 178.130402,355.384216 178.831146,355.840149 
	C178.452438,355.881226 177.913971,355.671967 177.211975,355.217834 
z"/>
<path fill="#F3AC52" opacity="1.000000" stroke="none" 
	d="
M182.135574,358.263123 
	C182.529770,358.209900 183.091476,358.408661 183.820435,358.864288 
	C183.426147,358.919128 182.864609,358.717102 182.135574,358.263123 
z"/>
<path fill="#F3AC52" opacity="1.000000" stroke="none" 
	d="
M184.035278,359.343842 
	C184.469772,359.267975 185.051941,359.471039 185.787338,359.955811 
	C185.354706,360.032593 184.768814,359.827698 184.035278,359.343842 
z"/>
<path fill="#F3AC52" opacity="1.000000" stroke="none" 
	d="
M185.954681,360.420715 
	C186.393280,360.365021 186.990952,360.575562 187.694077,361.105835 
	C187.237610,361.179382 186.675674,360.933167 185.954681,360.420715 
z"/>
<path fill="#EC4852" opacity="1.000000" stroke="none" 
	d="
M177.662018,143.948700 
	C177.530960,144.277344 177.121185,144.617294 176.435516,144.981094 
	C176.567520,144.656647 176.975403,144.308319 177.662018,143.948700 
z"/>
<path fill="#F95B4D" opacity="1.000000" stroke="none" 
	d="
M172.514801,165.730255 
	C172.446411,166.083054 172.108414,166.492966 171.491776,166.952240 
	C171.557159,166.596863 171.901184,166.192123 172.514801,165.730255 
z"/>
<path fill="#F9544F" opacity="1.000000" stroke="none" 
	d="
M176.965714,154.269745 
	C177.282898,154.456528 177.594055,154.950531 177.917725,155.747009 
	C177.606720,155.558670 177.283218,155.067810 176.965714,154.269745 
z"/>
<path fill="#EC4852" opacity="1.000000" stroke="none" 
	d="
M175.751862,151.491974 
	C176.117767,151.705795 176.495392,152.265961 176.861679,153.191254 
	C176.488083,152.983719 176.125839,152.411026 175.751862,151.491974 
z"/>
<path fill="#EC4852" opacity="1.000000" stroke="none" 
	d="
M174.772156,149.431717 
	C175.130493,149.597794 175.484344,150.068710 175.793777,150.855179 
	C175.422134,150.692673 175.094894,150.214615 174.772156,149.431717 
z"/>
<path fill="#F8963F" opacity="1.000000" stroke="none" 
	d="
M134.733673,304.497009 
	C135.089233,304.632477 135.474060,305.065918 135.851685,305.813477 
	C135.483963,305.683411 135.123459,305.239166 134.733673,304.497009 
z"/>
<path fill="#EC4852" opacity="1.000000" stroke="none" 
	d="
M179.571381,142.798645 
	C179.437271,143.156250 179.004929,143.530853 178.268005,143.913635 
	C178.399979,143.553085 178.836563,143.184357 179.571381,142.798645 
z"/>
<path fill="#EC4852" opacity="1.000000" stroke="none" 
	d="
M182.659485,140.931854 
	C182.510162,141.264084 182.067978,141.604156 181.335022,141.961914 
	C181.485046,141.632980 181.925827,141.286346 182.659485,140.931854 
z"/>
<path fill="#EC4852" opacity="1.000000" stroke="none" 
	d="
M184.602997,139.827515 
	C184.455215,140.178986 184.007248,140.546356 183.252350,140.921143 
	C183.397903,140.566864 183.850357,140.205139 184.602997,139.827515 
z"/>
<path fill="#F86C4B" opacity="1.000000" stroke="none" 
	d="
M140.574875,184.858826 
	C140.684113,185.062119 140.542740,185.371216 140.183929,185.820740 
	C140.085739,185.628983 140.205002,185.296799 140.574875,184.858826 
z"/>
<path fill="#F95B4D" opacity="1.000000" stroke="none" 
	d="
M169.770630,168.229980 
	C169.861435,168.415726 169.704697,168.613617 169.341156,168.875732 
	C169.178543,168.670471 169.308121,168.437866 169.770630,168.229980 
z"/>
<path fill="#F3AC52" opacity="1.000000" stroke="none" 
	d="
M175.943848,354.307281 
	C176.146194,354.210388 176.440811,354.369232 176.873840,354.740479 
	C176.686874,354.822876 176.361496,354.692963 175.943848,354.307281 
z"/>
<path fill="#F95B4D" opacity="1.000000" stroke="none" 
	d="
M175.669861,162.973648 
	C175.729355,163.175110 175.526855,163.441055 175.089828,163.809311 
	C175.039490,163.620453 175.223679,163.329300 175.669861,162.973648 
z"/>
<path fill="#F95B4D" opacity="1.000000" stroke="none" 
	d="
M174.626831,163.895172 
	C174.692352,164.123306 174.482376,164.401764 174.017700,164.763397 
	C173.959106,164.546219 174.155212,164.245850 174.626831,163.895172 
z"/>
<path fill="#F95B4D" opacity="1.000000" stroke="none" 
	d="
M173.568024,164.820160 
	C173.641693,165.053360 173.440918,165.350967 172.972168,165.722672 
	C172.900635,165.492706 173.097092,165.188629 173.568024,164.820160 
z"/>
<path fill="#F3AC52" opacity="1.000000" stroke="none" 
	d="
M207.277740,360.003052 
	C207.205582,359.804718 207.387482,359.524933 207.792328,359.124725 
	C207.854111,359.310059 207.692963,359.615845 207.277740,360.003052 
z"/>
<path fill="#F3AC52" opacity="1.000000" stroke="none" 
	d="
M187.778076,361.516541 
	C187.987396,361.384979 188.331055,361.506927 188.832458,361.860016 
	C188.630966,361.984100 188.271683,361.877045 187.778076,361.516541 
z"/>
<path fill="#EC4852" opacity="1.000000" stroke="none" 
	d="
M180.705124,142.052689 
	C180.838348,142.352432 180.617950,142.589386 180.060730,142.792938 
	C180.027298,142.590591 180.236496,142.334045 180.705124,142.052689 
z"/>
<path fill="#F3AC52" opacity="1.000000" stroke="none" 
	d="
M169.824783,331.321930 
	C170.029221,331.245331 170.357788,331.441315 170.830353,331.890625 
	C170.632523,331.960815 170.290726,331.777679 169.824783,331.321930 
z"/>
<path fill="#F3AC52" opacity="1.000000" stroke="none" 
	d="
M170.937012,332.309570 
	C171.145218,332.237946 171.438416,332.435516 171.855682,332.871918 
	C171.660492,332.933411 171.341248,332.756104 170.937012,332.309570 
z"/>
<path fill="#F3AC52" opacity="1.000000" stroke="none" 
	d="
M171.966599,333.291565 
	C172.174408,333.217804 172.459030,333.410645 172.867493,333.833435 
	C172.675339,333.894989 172.359375,333.726562 171.966599,333.291565 
z"/>
<path fill="#EC4852" opacity="1.000000" stroke="none" 
	d="
M185.739288,139.140320 
	C185.841446,139.432159 185.611847,139.645569 185.072235,139.825256 
	C185.052719,139.629440 185.267838,139.386215 185.739288,139.140320 
z"/>
<path fill="#F3AC52" opacity="1.000000" stroke="none" 
	d="
M173.023010,334.259338 
	C173.261398,334.114777 173.535248,334.298004 173.880783,334.777527 
	C173.708344,334.831116 173.410355,334.668884 173.023010,334.259338 
z"/>
<path fill="#F3AC52" opacity="1.000000" stroke="none" 
	d="
M174.088409,335.226471 
	C174.308838,335.091827 174.565125,335.260620 174.896896,335.697113 
	C174.656937,335.903748 174.374237,335.758789 174.088409,335.226471 
z"/>
<path fill="#F3AC52" opacity="1.000000" stroke="none" 
	d="
M176.787766,337.441406 
	C177.024506,337.345886 177.351364,337.533112 177.791077,337.988037 
	C177.561905,338.078552 177.219894,337.901337 176.787766,337.441406 
z"/>
<path fill="#F95B4D" opacity="1.000000" stroke="none" 
	d="
M170.756287,167.257599 
	C170.849182,167.448105 170.695587,167.636139 170.336472,167.876862 
	C170.163071,167.663773 170.289352,167.438950 170.756287,167.257599 
z"/>
<path fill="#EC4852" opacity="1.000000" stroke="none" 
	d="
M175.719330,145.143921 
	C175.849655,145.413879 175.656647,145.636276 175.168365,145.860336 
	C174.968445,145.567917 175.142761,145.312714 175.719330,145.143921 
z"/>
<path fill="#F3AC52" opacity="1.000000" stroke="none" 
	d="
M177.834778,338.386475 
	C178.061691,338.308502 178.377518,338.509613 178.800537,338.978088 
	C178.579697,339.052155 178.251678,338.858856 177.834778,338.386475 
z"/>
<path fill="#EC4852" opacity="1.000000" stroke="none" 
	d="
M187.654663,137.989227 
	C187.674637,138.214355 187.395660,138.482956 186.825348,138.814545 
	C186.807922,138.595917 187.081818,138.314316 187.654663,137.989227 
z"/>
<path fill="#1E2836" opacity="1.000000" stroke="none" 
	d="
M252.488754,351.003693 
	C252.020050,346.655884 252.010040,342.306244 252.459763,337.484375 
	C266.145630,337.176056 278.435486,333.773224 290.038422,327.508484 
	C318.978455,311.883087 335.059296,287.796509 338.382690,254.932892 
	C339.872772,252.188263 340.985046,249.508820 342.184448,246.619476 
	C345.294586,247.077530 349.507324,246.123672 351.002441,250.999649 
	C351.001221,254.692352 351.000000,258.385040 350.998199,262.538269 
	C350.333282,264.149506 349.129578,265.280518 349.086639,266.454010 
	C348.563324,280.755035 342.020660,292.994568 335.221161,304.879791 
	C328.921356,315.891571 319.878540,324.728210 309.451050,332.173859 
	C292.498169,344.278839 273.874939,351.005188 252.488754,351.003693 
z"/>
<path fill="#0A1727" opacity="1.000000" stroke="none" 
	d="
M338.004883,254.998108 
	C335.059296,287.796509 318.978455,311.883087 290.038422,327.508484 
	C278.435486,333.773224 266.145630,337.176056 252.460052,337.021667 
	C251.792175,337.041199 251.583725,337.051208 251.063980,337.095825 
	C249.735809,337.084900 248.718903,337.039368 246.890381,337.020752 
	C238.762131,335.900879 231.445496,334.754120 224.128876,333.607361 
	C224.128876,333.607361 224.108490,333.756195 223.969818,333.497131 
	C223.195938,333.112823 222.560745,332.987579 221.925537,332.862335 
	C221.925537,332.862335 221.770676,332.767548 221.523346,332.558533 
	C220.851364,332.256134 220.426697,332.162781 220.002045,332.069397 
	C220.002045,332.069397 219.757294,331.835114 219.310486,331.621155 
	C217.241470,330.955597 215.619232,330.503998 213.996994,330.052399 
	C212.511551,329.380676 211.026093,328.708923 209.108109,327.668396 
	C207.113480,326.225159 205.551376,325.150787 203.989273,324.076416 
	C203.989273,324.076416 203.718643,323.858704 203.405701,323.566528 
	C202.742111,323.152252 202.391479,323.030182 202.040833,322.908112 
	C202.040833,322.908112 202.022217,322.991455 201.926147,322.707062 
	C201.339844,322.161346 200.849609,321.899994 200.359360,321.638672 
	C200.359360,321.638672 200.265518,321.676270 200.134277,321.382324 
	C199.343323,320.716156 198.683594,320.343964 198.023865,319.971771 
	C198.023865,319.971771 198.000000,320.000000 197.882385,319.730835 
	C197.260818,319.213226 196.756882,318.964783 196.252930,318.716370 
	C196.252930,318.716370 195.998596,318.991455 195.997482,318.592621 
	C195.342606,317.779968 194.688843,317.366150 194.035065,316.952362 
	C194.035065,316.952362 194.001312,317.000458 193.934967,316.742737 
	C193.576920,316.336945 193.285217,316.188873 192.993530,316.040771 
	C192.993530,316.040771 193.000137,315.994049 192.861328,315.747986 
	C192.243057,315.228851 191.763626,314.955811 191.284195,314.682770 
	C191.284195,314.682770 191.000000,315.000000 191.053528,314.604797 
	C190.816269,314.056946 190.525497,313.904297 190.234726,313.751648 
	C190.234726,313.751648 190.006592,313.986145 190.046722,313.629578 
	C189.797394,313.107208 189.507950,312.941406 189.218491,312.775635 
	C189.218491,312.775635 189.002441,312.997559 189.035217,312.646729 
	C188.785263,312.124268 188.502548,311.952606 188.219849,311.780945 
	C188.219849,311.780945 188.000000,312.000000 188.033417,311.648560 
	C187.785416,311.125580 187.504013,310.954071 187.222610,310.782532 
	C187.222610,310.782532 186.999390,310.997559 187.043518,310.647583 
	C186.824936,310.110321 186.562241,309.923004 186.299530,309.735687 
	C186.299530,309.735687 186.088013,309.905060 186.119476,309.572968 
	C185.991730,308.930878 185.740356,308.746582 185.396820,308.687988 
	C185.396820,308.687988 185.355209,308.656311 185.288010,308.420593 
	C185.073074,307.909058 184.847626,307.732574 184.544434,307.655396 
	C184.544434,307.655396 184.491211,307.572906 184.356659,307.288879 
	C183.823929,306.656097 183.425766,306.307343 183.027603,305.958557 
	C183.027603,305.958557 182.997833,305.997681 182.943481,305.684265 
	C182.035873,304.490051 181.182617,303.609222 180.329346,302.728424 
	C180.329346,302.728424 180.093765,302.975983 180.146790,302.570374 
	C179.818756,301.756866 179.437698,301.348938 179.056656,300.941040 
	C179.056656,300.941040 178.998642,300.993805 178.985092,300.689270 
	C178.487076,299.798615 178.002594,299.212494 177.518127,298.626373 
	C177.518127,298.626373 177.466660,298.592834 177.384613,298.299896 
	C176.952637,297.609528 176.602692,297.212067 176.252762,296.814606 
	C176.252762,296.814606 176.011719,296.991028 176.084717,296.615143 
	C175.795715,295.821472 175.433716,295.403687 175.071701,294.985901 
	C175.071701,294.985901 175.064636,294.947144 175.025818,294.692200 
	C174.884796,294.093201 174.660889,293.872742 174.315292,293.775787 
	C174.315292,293.775787 174.225723,293.794159 174.173309,293.406799 
	C171.122604,285.558502 168.138702,278.091675 165.112259,270.642151 
	C164.588715,269.353455 163.884964,268.137939 163.264450,266.888641 
	C163.178146,266.168488 163.091843,265.448364 162.970947,264.365845 
	C162.840546,257.749695 162.492401,251.486252 162.730881,245.245224 
	C162.912994,240.479019 163.837845,235.741180 164.439911,230.564346 
	C166.050568,225.385513 167.653610,220.633057 169.320038,215.498581 
	C171.577484,211.017731 173.771576,206.918869 176.041473,202.483276 
	C176.117279,202.146545 176.111435,202.116638 176.373047,201.957428 
	C176.808640,201.216766 176.982620,200.635315 177.156601,200.053848 
	C178.468369,198.319763 179.780136,196.585693 181.116318,194.507507 
	C181.140732,194.163422 181.090073,194.106979 181.339020,194.045715 
	C181.767395,193.671082 181.946823,193.357697 182.126251,193.044327 
	C182.126251,193.044327 182.040222,193.040970 182.296875,192.993225 
	C182.729614,192.644333 182.905701,192.343185 183.081802,192.042038 
	C183.081802,192.042038 183.012863,192.015106 183.287857,191.973877 
	C183.767059,191.657776 183.971252,191.382919 184.175446,191.108063 
	C184.175446,191.108047 184.092041,191.101624 184.369904,191.067093 
	C184.810349,190.710785 184.972931,190.389008 185.135513,190.067230 
	C185.135513,190.067230 185.059158,190.049652 185.321381,190.007507 
	C185.759308,189.661621 185.935043,189.357910 186.110779,189.054184 
	C186.110779,189.054184 186.035355,189.034256 186.303268,188.995392 
	C186.739883,188.651657 186.908585,188.346786 187.077301,188.041916 
	C187.077286,188.041916 187.010941,188.009048 187.275330,187.957489 
	C187.719223,187.615494 187.898727,187.325058 188.078217,187.034607 
	C191.329056,184.270065 194.579910,181.505508 197.955444,178.423401 
	C198.080124,178.105820 198.046982,178.055573 198.341431,178.032455 
	C199.113358,177.693130 199.590836,177.376938 200.068314,177.060745 
	C200.068314,177.060745 200.012314,177.001404 200.298401,176.989227 
	C200.808472,176.703217 201.032486,176.429398 201.256500,176.155579 
	C201.256500,176.155579 201.152603,176.201691 201.510254,176.162155 
	C203.291855,175.115631 204.715820,174.108643 206.139801,173.101654 
	C206.139801,173.101654 206.056580,173.072372 206.352219,173.079468 
	C207.122803,172.739014 207.597748,172.391464 208.072693,172.043915 
	C208.072693,172.043915 208.013916,172.002319 208.353027,171.991913 
	C209.816696,171.329300 210.941238,170.677078 212.065765,170.024857 
	C223.834137,164.594894 236.289017,161.974731 249.566986,160.868805 
	C250.358551,160.088898 250.720978,159.407257 251.310120,158.411163 
	C251.536819,158.096695 251.844620,158.114975 251.844620,158.114975 
	C251.782806,161.311401 254.083618,161.059067 256.894623,161.339142 
	C262.783264,162.579697 268.022186,163.347137 273.139679,164.607651 
	C288.482117,168.386749 301.246735,176.832047 312.964630,187.085464 
	C315.772034,190.633865 318.579468,194.182266 321.733459,198.251541 
	C333.130920,215.887833 339.112640,234.438980 338.004883,254.998108 
M292.547943,274.918182 
	C288.692230,269.127716 285.012817,263.208282 280.909698,257.598755 
	C278.712524,254.594986 278.591339,252.466873 280.875854,249.335846 
	C285.610443,242.846863 289.791901,235.954285 294.508667,228.757965 
	C291.002502,228.757965 288.167511,229.042557 285.413544,228.691391 
	C281.265320,228.162460 278.646576,229.353836 276.865906,233.399033 
	C275.236206,237.101151 272.720947,240.413422 270.308533,244.368683 
	C267.610596,239.733612 265.242065,235.560150 262.753052,231.459824 
	C262.110046,230.400543 261.133362,228.815201 260.234131,228.762405 
	C255.585312,228.489441 250.911896,228.635605 245.435165,228.635605 
	C251.444061,237.657104 256.756409,245.632843 262.080017,253.625473 
	C259.058563,258.138672 256.224213,262.437317 253.321945,266.689575 
	C250.385590,270.991730 247.382034,275.247955 243.883667,280.278107 
	C248.057175,280.278107 251.078583,279.941010 253.992218,280.357666 
	C258.290314,280.972351 260.683228,279.235229 262.552582,275.514465 
	C264.644592,271.350494 267.290619,267.464844 270.035980,262.890900 
	C272.861694,267.623901 274.983734,271.379822 277.315399,275.000793 
	C278.520294,276.871918 279.911621,279.763794 281.541290,280.003815 
	C286.176910,280.686401 290.978271,280.243347 296.148315,280.243347 
	C294.791687,278.222809 293.875916,276.858887 292.547943,274.918182 
M238.535706,276.074432 
	C240.381729,274.719391 242.227768,273.364319 244.492447,271.701965 
	C240.513260,268.336914 237.781799,266.026978 235.128433,263.783081 
	C226.663193,270.600555 217.953568,271.051025 212.321991,265.266113 
	C207.164383,259.968079 206.791611,249.846436 211.925507,244.152832 
	C218.306030,237.076706 226.691635,237.530777 235.383820,244.910889 
	C237.369904,243.164536 239.281174,241.303223 241.380554,239.686127 
	C243.734940,237.872604 243.513794,236.428940 241.431885,234.495758 
	C228.472717,222.462357 204.988495,226.623260 197.268311,242.387695 
	C192.028305,253.087677 194.511429,266.876404 203.062241,274.561371 
	C212.028625,282.619873 226.622604,283.439484 238.535706,276.074432 
M302.690094,248.505447 
	C302.678894,255.664108 302.716583,262.823242 302.645599,269.981293 
	C302.522980,282.341827 302.495117,282.344421 314.900665,280.371094 
	C315.187958,280.325378 315.432831,280.013306 315.643799,279.863556 
	C315.643799,262.906860 315.643799,245.993423 315.643799,228.940338 
	C311.258636,228.940338 307.154877,228.940338 302.680298,228.940338 
	C302.680298,235.270874 302.680298,241.389801 302.690094,248.505447 
M316.184418,214.231491 
	C314.944702,210.524445 312.016693,208.590286 308.537689,209.429199 
	C306.182251,209.997162 303.184631,212.194260 302.529083,214.301865 
	C301.884491,216.374207 303.113800,220.179764 304.842773,221.522308 
	C306.635681,222.914459 310.678253,223.344910 312.521301,222.214325 
	C314.524384,220.985596 315.127808,217.475067 316.184418,214.231491 
z"/>
<path fill="#263547" opacity="1.000000" stroke="none" 
	d="
M312.976257,186.669342 
	C301.246735,176.832047 288.482117,168.386749 273.139679,164.607651 
	C268.022186,163.347137 262.783264,162.579697 257.296326,161.345123 
	C256.969543,160.607117 257.016174,160.095703 256.912659,159.616760 
	C254.987320,150.707169 256.515808,148.727859 265.708038,150.131119 
	C278.657928,152.108017 291.321777,155.344910 302.196289,163.168518 
	C307.533600,167.008423 312.535675,171.314346 317.845947,175.703766 
	C313.437897,178.001846 313.540619,182.287781 312.976257,186.669342 
z"/>
<path fill="#263547" opacity="1.000000" stroke="none" 
	d="
M252.118988,157.859344 
	C251.844620,158.114975 251.536819,158.096695 251.383026,158.087738 
	C251.137787,155.363342 251.046341,152.647903 251.042389,149.490784 
	C251.551056,151.900650 251.972198,154.752197 252.118988,157.859344 
z"/>
<path fill="#F3AC52" opacity="1.000000" stroke="none" 
	d="
M224.292023,333.948364 
	C231.445496,334.754120 238.762131,335.900879 246.517822,337.108673 
	C246.956909,337.169708 246.968506,337.583282 246.981445,337.789673 
	C239.481308,336.760498 231.968246,335.524902 224.292023,333.948364 
z"/>
<path fill="#B58853" opacity="1.000000" stroke="none" 
	d="
M204.063019,324.390686 
	C205.551376,325.150787 207.113480,326.225159 208.761292,327.599030 
	C207.276917,326.833984 205.706833,325.769470 204.063019,324.390686 
z"/>
<path fill="#F3AC52" opacity="1.000000" stroke="none" 
	d="
M214.191833,330.372986 
	C215.619232,330.503998 217.241470,330.955597 219.144455,331.654724 
	C217.745697,331.499359 216.066177,331.096466 214.191833,330.372986 
z"/>
<path fill="#B58853" opacity="1.000000" stroke="none" 
	d="
M180.271271,303.085205 
	C181.182617,303.609222 182.035873,304.490051 182.965363,305.673279 
	C182.289062,305.711914 181.536545,305.448120 180.527557,305.032013 
	C180.251801,304.400482 180.232513,303.921234 180.271271,303.085205 
z"/>
<path fill="#B58853" opacity="1.000000" stroke="none" 
	d="
M198.087341,320.294891 
	C198.683594,320.343964 199.343323,320.716156 200.153351,321.335480 
	C199.586014,321.261078 198.868408,320.939545 198.087341,320.294891 
z"/>
<path fill="#B58853" opacity="1.000000" stroke="none" 
	d="
M194.143890,317.239929 
	C194.688843,317.366150 195.342606,317.779968 196.127472,318.458099 
	C195.589966,318.324097 194.921341,317.925812 194.143890,317.239929 
z"/>
<path fill="#B58853" opacity="1.000000" stroke="none" 
	d="
M183.051147,306.261230 
	C183.425766,306.307343 183.823929,306.656097 184.318024,307.258606 
	C183.967529,307.196228 183.521118,306.880066 183.051147,306.261230 
z"/>
<path fill="#B58853" opacity="1.000000" stroke="none" 
	d="
M196.350800,319.000610 
	C196.756882,318.964783 197.260818,319.213226 197.895355,319.717499 
	C197.500183,319.743866 196.974426,319.514374 196.350800,319.000610 
z"/>
<path fill="#B58853" opacity="1.000000" stroke="none" 
	d="
M200.424179,321.937775 
	C200.849609,321.899994 201.339844,322.161346 201.955475,322.676025 
	C201.550247,322.698547 201.019623,322.467712 200.424179,321.937775 
z"/>
<path fill="#B58853" opacity="1.000000" stroke="none" 
	d="
M191.359741,314.970367 
	C191.763626,314.955811 192.243057,315.228851 192.839813,315.757690 
	C192.449860,315.761627 191.942581,315.509796 191.359741,314.970367 
z"/>
<path fill="#F3AC52" opacity="1.000000" stroke="none" 
	d="
M222.132660,333.128143 
	C222.560745,332.987579 223.195938,333.112823 224.044006,333.485474 
	C223.617844,333.619873 222.978806,333.506897 222.132660,333.128143 
z"/>
<path fill="#B58853" opacity="1.000000" stroke="none" 
	d="
M187.290405,311.031586 
	C187.504013,310.954071 187.785416,311.125580 188.143799,311.539337 
	C187.933258,311.614594 187.645737,311.447632 187.290405,311.031586 
z"/>
<path fill="#B58853" opacity="1.000000" stroke="none" 
	d="
M186.341766,309.990356 
	C186.562241,309.923004 186.824936,310.110321 187.153931,310.538574 
	C186.941467,310.601349 186.662735,310.423187 186.341766,309.990356 
z"/>
<path fill="#B58853" opacity="1.000000" stroke="none" 
	d="
M185.414154,308.945831 
	C185.740356,308.746582 185.991730,308.930878 186.211746,309.473755 
	C185.992203,309.538971 185.711838,309.371338 185.414154,308.945831 
z"/>
<path fill="#B58853" opacity="1.000000" stroke="none" 
	d="
M184.529327,307.905304 
	C184.847626,307.732574 185.073074,307.909058 185.274475,308.398224 
	C185.056824,308.459473 184.785522,308.307343 184.529327,307.905304 
z"/>
<path fill="#B58853" opacity="1.000000" stroke="none" 
	d="
M193.094910,316.267944 
	C193.285217,316.188873 193.576920,316.336945 193.957184,316.723297 
	C193.690063,316.938110 193.406921,316.782623 193.094910,316.267944 
z"/>
<path fill="#B58853" opacity="1.000000" stroke="none" 
	d="
M202.189392,323.152496 
	C202.391479,323.030182 202.742111,323.152252 203.238831,323.518372 
	C203.035919,323.640594 202.686935,323.518738 202.189392,323.152496 
z"/>
<path fill="#B58853" opacity="1.000000" stroke="none" 
	d="
M190.301544,314.007019 
	C190.525497,313.904297 190.816269,314.056946 191.195679,314.446533 
	C190.979004,314.543121 190.673691,314.402771 190.301544,314.007019 
z"/>
<path fill="#F3AC52" opacity="1.000000" stroke="none" 
	d="
M220.225403,332.294006 
	C220.426697,332.162781 220.851364,332.256134 221.462555,332.625946 
	C221.248962,332.774445 220.848862,332.646515 220.225403,332.294006 
z"/>
<path fill="#B58853" opacity="1.000000" stroke="none" 
	d="
M189.286469,313.029266 
	C189.507950,312.941406 189.797394,313.107208 190.166107,313.517883 
	C189.948380,313.602783 189.651398,313.442841 189.286469,313.029266 
z"/>
<path fill="#B58853" opacity="1.000000" stroke="none" 
	d="
M188.285339,312.032990 
	C188.502548,311.952606 188.785263,312.124268 189.146088,312.538635 
	C188.933090,312.615906 188.641953,312.450470 188.285339,312.032990 
z"/>
<path fill="#202C3C" opacity="1.000000" stroke="none" 
	d="
M338.382690,254.932892 
	C339.112640,234.438980 333.130920,215.887833 322.020813,198.433533 
	C325.674072,191.394135 331.834351,190.881226 335.732056,197.291382 
	C339.063354,202.770065 341.740814,208.646286 344.854340,214.673035 
	C349.050537,226.474731 351.170013,238.302017 351.235291,250.730545 
	C349.507324,246.123672 345.294586,247.077530 342.184448,246.619476 
	C340.985046,249.508820 339.872772,252.188263 338.382690,254.932892 
z"/>
<path fill="#B58853" opacity="1.000000" stroke="none" 
	d="
M163.234955,267.290497 
	C163.884964,268.137939 164.588715,269.353455 165.112259,270.642151 
	C168.138702,278.091675 171.122604,285.558502 174.196762,293.367554 
	C171.765884,289.604492 169.259155,285.493317 166.531677,281.134430 
	C165.275772,276.488586 164.240631,272.090485 163.234955,267.290497 
z"/>
<path fill="#F95B4D" opacity="1.000000" stroke="none" 
	d="
M205.756897,173.080505 
	C204.715820,174.108643 203.291855,175.115631 201.547546,176.205063 
	C202.609467,175.211456 203.991730,174.135406 205.756897,173.080505 
z"/>
<path fill="#F95B4D" opacity="1.000000" stroke="none" 
	d="
M211.686707,170.020569 
	C210.941238,170.677078 209.816696,171.329300 208.364258,172.026123 
	C209.126801,171.385925 210.217224,170.701096 211.686707,170.020569 
z"/>
<path fill="#F95B4D" opacity="1.000000" stroke="none" 
	d="
M199.763306,177.078003 
	C199.590836,177.376938 199.113358,177.693130 198.337021,178.061783 
	C198.511536,177.774567 198.984909,177.434906 199.763306,177.078003 
z"/>
<path fill="#F95B4D" opacity="1.000000" stroke="none" 
	d="
M207.763580,172.067841 
	C207.597748,172.391464 207.122803,172.739014 206.345306,173.123032 
	C206.513336,172.803589 206.983902,172.447662 207.763580,172.067841 
z"/>
<path fill="#F95B4D" opacity="1.000000" stroke="none" 
	d="
M200.998459,176.226593 
	C201.032486,176.429398 200.808472,176.703217 200.312576,177.027451 
	C200.273926,176.817780 200.507172,176.557709 200.998459,176.226593 
z"/>
<path fill="#B58853" opacity="1.000000" stroke="none" 
	d="
M177.485107,298.934601 
	C178.002594,299.212494 178.487076,299.798615 179.019531,300.670959 
	C178.529068,300.385742 177.990585,299.814270 177.485107,298.934601 
z"/>
<path fill="#B58853" opacity="1.000000" stroke="none" 
	d="
M175.073212,295.285217 
	C175.433716,295.403687 175.795715,295.821472 176.200989,296.521393 
	C175.854416,296.397186 175.464554,295.990845 175.073212,295.285217 
z"/>
<path fill="#B58853" opacity="1.000000" stroke="none" 
	d="
M176.226395,297.126312 
	C176.602692,297.212067 176.952637,297.609528 177.372559,298.271667 
	C177.028381,298.170227 176.614212,297.804138 176.226395,297.126312 
z"/>
<path fill="#B58853" opacity="1.000000" stroke="none" 
	d="
M179.066101,301.248901 
	C179.437698,301.348938 179.818756,301.756866 180.260345,302.447510 
	C179.905792,302.339050 179.490662,301.947906 179.066101,301.248901 
z"/>
<path fill="#B58853" opacity="1.000000" stroke="none" 
	d="
M174.322571,294.023193 
	C174.660889,293.872742 174.884796,294.093201 175.010468,294.679810 
	C174.692062,294.820862 174.457352,294.603577 174.322571,294.023193 
z"/>
<path fill="#F86C4B" opacity="1.000000" stroke="none" 
	d="
M176.895828,200.217865 
	C176.982620,200.635315 176.808640,201.216766 176.365692,201.945023 
	C176.276138,201.521835 176.455597,200.951843 176.895828,200.217865 
z"/>
<path fill="#FB634C" opacity="1.000000" stroke="none" 
	d="
M181.888687,193.169373 
	C181.946823,193.357697 181.767395,193.671082 181.329041,194.082245 
	C181.263794,193.884811 181.457474,193.589615 181.888687,193.169373 
z"/>
<path fill="#FB634C" opacity="1.000000" stroke="none" 
	d="
M182.853851,192.163727 
	C182.905701,192.343185 182.729614,192.644333 182.300201,193.036133 
	C182.239899,192.846344 182.432907,192.565887 182.853851,192.163727 
z"/>
<path fill="#FB634C" opacity="1.000000" stroke="none" 
	d="
M183.932327,191.200104 
	C183.971252,191.382919 183.767059,191.657776 183.301788,192.008163 
	C183.256866,191.819839 183.473022,191.556000 183.932327,191.200104 
z"/>
<path fill="#FB634C" opacity="1.000000" stroke="none" 
	d="
M184.898773,190.184814 
	C184.972931,190.389008 184.810349,190.710785 184.378998,191.107910 
	C184.294159,190.889648 184.478104,190.596039 184.898773,190.184814 
z"/>
<path fill="#FB634C" opacity="1.000000" stroke="none" 
	d="
M185.880096,189.172028 
	C185.935043,189.357910 185.759308,189.661621 185.323563,190.046631 
	C185.258820,189.848557 185.454117,189.569214 185.880096,189.172028 
z"/>
<path fill="#FB634C" opacity="1.000000" stroke="none" 
	d="
M186.853012,188.162323 
	C186.908585,188.346786 186.739883,188.651657 186.313339,189.033066 
	C186.246567,188.833984 186.437653,188.558365 186.853012,188.162323 
z"/>
<path fill="#FB634C" opacity="1.000000" stroke="none" 
	d="
M187.854904,187.152512 
	C187.898727,187.325058 187.719223,187.615494 187.290451,187.991272 
	C187.237976,187.807877 187.434784,187.539139 187.854904,187.152512 
z"/>
<path fill="#F7F6F7" opacity="1.000000" stroke="none" 
	d="
M292.754028,275.206573 
	C293.875916,276.858887 294.791687,278.222809 296.148315,280.243347 
	C290.978271,280.243347 286.176910,280.686401 281.541290,280.003815 
	C279.911621,279.763794 278.520294,276.871918 277.315399,275.000793 
	C274.983734,271.379822 272.861694,267.623901 270.035980,262.890900 
	C267.290619,267.464844 264.644592,271.350494 262.552582,275.514465 
	C260.683228,279.235229 258.290314,280.972351 253.992218,280.357666 
	C251.078583,279.941010 248.057175,280.278107 243.883667,280.278107 
	C247.382034,275.247955 250.385590,270.991730 253.321945,266.689575 
	C256.224213,262.437317 259.058563,258.138672 262.080017,253.625473 
	C256.756409,245.632843 251.444061,237.657104 245.435165,228.635605 
	C250.911896,228.635605 255.585312,228.489441 260.234131,228.762405 
	C261.133362,228.815201 262.110046,230.400543 262.753052,231.459824 
	C265.242065,235.560150 267.610596,239.733612 270.308533,244.368683 
	C272.720947,240.413422 275.236206,237.101151 276.865906,233.399033 
	C278.646576,229.353836 281.265320,228.162460 285.413544,228.691391 
	C288.167511,229.042557 291.002502,228.757965 294.508667,228.757965 
	C289.791901,235.954285 285.610443,242.846863 280.875854,249.335846 
	C278.591339,252.466873 278.712524,254.594986 280.909698,257.598755 
	C285.012817,263.208282 288.692230,269.127716 292.754028,275.206573 
z"/>
<path fill="#F7F6F7" opacity="1.000000" stroke="none" 
	d="
M238.249573,276.297943 
	C226.622604,283.439484 212.028625,282.619873 203.062241,274.561371 
	C194.511429,266.876404 192.028305,253.087677 197.268311,242.387695 
	C204.988495,226.623260 228.472717,222.462357 241.431885,234.495758 
	C243.513794,236.428940 243.734940,237.872604 241.380554,239.686127 
	C239.281174,241.303223 237.369904,243.164536 235.383820,244.910889 
	C226.691635,237.530777 218.306030,237.076706 211.925507,244.152832 
	C206.791611,249.846436 207.164383,259.968079 212.321991,265.266113 
	C217.953568,271.051025 226.663193,270.600555 235.128433,263.783081 
	C237.781799,266.026978 240.513260,268.336914 244.492447,271.701965 
	C242.227768,273.364319 240.381729,274.719391 238.249573,276.297943 
z"/>
<path fill="#F8F8F9" opacity="1.000000" stroke="none" 
	d="
M302.685181,248.007095 
	C302.680298,241.389801 302.680298,235.270874 302.680298,228.940338 
	C307.154877,228.940338 311.258636,228.940338 315.643799,228.940338 
	C315.643799,245.993423 315.643799,262.906860 315.643799,279.863556 
	C315.432831,280.013306 315.187958,280.325378 314.900665,280.371094 
	C302.495117,282.344421 302.522980,282.341827 302.645599,269.981293 
	C302.716583,262.823242 302.678894,255.664108 302.685181,248.007095 
z"/>
<path fill="#F7F6F7" opacity="1.000000" stroke="none" 
	d="
M316.262939,214.595474 
	C315.127808,217.475067 314.524384,220.985596 312.521301,222.214325 
	C310.678253,223.344910 306.635681,222.914459 304.842773,221.522308 
	C303.113800,220.179764 301.884491,216.374207 302.529083,214.301865 
	C303.184631,212.194260 306.182251,209.997162 308.537689,209.429199 
	C312.016693,208.590286 314.944702,210.524445 316.262939,214.595474 
z"/>
</svg>